<svg height="100" viewBox="0 0 100 100" width="100" xmlns="http://www.w3.org/2000/svg"><path d="m64.93 59.11 8.35.8 11.29-1.89v-12.07l-11.29-.94-8.35.39z" fill="#205b99"/><path d="m84.57 38.07-34.01 3.48-34.01-3.48 34.01-29.07z" fill="#19486f"/><path d="m67.56 62 11.25 14.78 5.76-14.85-10.69-1.1z" fill="#99bce3"/><path d="m67.56 62 11.43 1.39v13.39l-11.43-2.77z" fill="#205b99"/><path d="m55.32 64.13 12.34 18.37 7.93-18.33-11.88-1.58z" fill="#99bce3"/><path d="m55.32 64.13 12.24 2v16.37l-12.24-4.02z" fill="#205b99"/><path d="m84.57 38.07-34.01-8.48v-20.59l34.01 17z" fill="#5294cf"/><path d="m33.55 62-11.25 14.78-5.75-14.85 10.68-1.1z" fill="#99bce3"/><path d="m33.55 62-11.43 1.39v13.39l11.43-2.77z" fill="#5294cf"/><path d="m45.8 64.13-12.34 18.37-7.93-18.33 11.88-1.58z" fill="#99bce3"/><path d="m45.8 64.13-12.25 2v16.37l12.25-4.02z" fill="#5294cf"/><path d="m62.93 67.32-12.37-2.28-12.37 2.28 12.37 23.68z" fill="#99bce3"/><path d="m62.93 67.32-12.37 3.08v20.6l12.37-6.19z" fill="#5294cf"/><path d="m22.12 63.32-5.57-1.39v12.07l5.57 2.78z" fill="#205b99"/><path d="m25.53 64.17 8.02 2v16.33l-8.02-4.02z" fill="#205b99"/><path d="m78.99 63.32 5.58-1.39v12.07l-5.58 2.78z" fill="#5294cf"/><path d="m75.59 64.17-8.03 2v16.33l8.03-4.02z" fill="#5294cf"/><path d="m16.55 38.07 34.01-8.48v-20.59l-34.01 17z" fill="#205b99"/><path d="m38.19 67.32 12.37 3.08v20.6l-12.37-6.19z" fill="#205b99"/><path d="m84.57 45.95-11.29-.94v14.91l11.29-1.9z" fill="#5294cf"/><path d="m16.55 45.95 11.29-.94 8.35.39v13.71l-8.35.81-11.29-1.9z" fill="#205b99"/><path d="m36.19 59.11-8.35.8v-14.9l8.35.39z" fill="#5294cf"/><path d="m33.55 44.55 17.01-1.4 17 1.4v16.33l-17 2.85-17.01-2.85z" fill="#205b99"/><path d="m67.56 44.55-17-1.4v20.58l17-2.85z" fill="#5294cf"/></svg>